<mxfile host="app.diagrams.net" modified="2021-02-04T05:45:55.455Z" agent="5.0 (Macintosh; Intel Mac OS X 11_1_0) AppleWebKit/537.36 (KHTML, like Gecko) Chrome/88.0.4324.96 Safari/537.36" etag="KlXa8HEjdMwji-dvredi" version="14.2.9" type="github">
  <diagram id="wWv7sE0zf3cHPduYn-Hg" name="第 1 页">
    <mxGraphModel dx="1863" dy="589" grid="1" gridSize="10" guides="1" tooltips="1" connect="1" arrows="1" fold="1" page="1" pageScale="1" pageWidth="827" pageHeight="1169" math="0" shadow="0">
      <root>
        <mxCell id="0" />
        <mxCell id="1" parent="0" />
        <mxCell id="n2ireLhnC03Noz2BO7-L-1" value="" style="ellipse;whiteSpace=wrap;html=1;" vertex="1" parent="1">
          <mxGeometry x="1430" y="260" width="1120" height="670" as="geometry" />
        </mxCell>
        <mxCell id="n2ireLhnC03Noz2BO7-L-2" value="Relayer" style="swimlane;fontStyle=1;align=center;verticalAlign=top;childLayout=stackLayout;horizontal=1;startSize=26;horizontalStack=0;resizeParent=1;resizeParentMax=0;resizeLast=0;collapsible=1;marginBottom=0;" vertex="1" parent="1">
          <mxGeometry x="1910" y="409" width="160" height="86" as="geometry" />
        </mxCell>
        <mxCell id="n2ireLhnC03Noz2BO7-L-3" value="Alice" style="text;strokeColor=none;fillColor=none;align=left;verticalAlign=top;spacingLeft=4;spacingRight=4;overflow=hidden;rotatable=0;points=[[0,0.5],[1,0.5]];portConstraint=eastwest;" vertex="1" parent="n2ireLhnC03Noz2BO7-L-2">
          <mxGeometry y="26" width="160" height="26" as="geometry" />
        </mxCell>
        <mxCell id="n2ireLhnC03Noz2BO7-L-4" value="" style="line;strokeWidth=1;fillColor=none;align=left;verticalAlign=middle;spacingTop=-1;spacingLeft=3;spacingRight=3;rotatable=0;labelPosition=right;points=[];portConstraint=eastwest;" vertex="1" parent="n2ireLhnC03Noz2BO7-L-2">
          <mxGeometry y="52" width="160" height="8" as="geometry" />
        </mxCell>
        <mxCell id="n2ireLhnC03Noz2BO7-L-5" value="Bob" style="text;strokeColor=none;fillColor=none;align=left;verticalAlign=top;spacingLeft=4;spacingRight=4;overflow=hidden;rotatable=0;points=[[0,0.5],[1,0.5]];portConstraint=eastwest;" vertex="1" parent="n2ireLhnC03Noz2BO7-L-2">
          <mxGeometry y="60" width="160" height="26" as="geometry" />
        </mxCell>
        <mxCell id="n2ireLhnC03Noz2BO7-L-6" value="Listener" style="shape=process;whiteSpace=wrap;html=1;backgroundOutline=1;" vertex="1" parent="1">
          <mxGeometry x="1550" y="422" width="120" height="60" as="geometry" />
        </mxCell>
        <mxCell id="n2ireLhnC03Noz2BO7-L-7" value="Writer" style="shape=process;whiteSpace=wrap;html=1;backgroundOutline=1;" vertex="1" parent="1">
          <mxGeometry x="1550" y="640" width="120" height="60" as="geometry" />
        </mxCell>
        <mxCell id="n2ireLhnC03Noz2BO7-L-8" value="Client" style="shape=actor;whiteSpace=wrap;html=1;fillColor=#f8cecc;strokeColor=#b85450;" vertex="1" parent="1">
          <mxGeometry x="2800" y="554.5" width="40" height="55" as="geometry" />
        </mxCell>
        <mxCell id="n2ireLhnC03Noz2BO7-L-9" value="" style="ellipse;whiteSpace=wrap;html=1;" vertex="1" parent="1">
          <mxGeometry x="-360" y="215" width="1120" height="670" as="geometry" />
        </mxCell>
        <mxCell id="n2ireLhnC03Noz2BO7-L-10" style="rounded=0;orthogonalLoop=1;jettySize=auto;html=1;exitX=0.25;exitY=0;exitDx=0;exitDy=0;entryX=0;entryY=0.5;entryDx=0;entryDy=0;edgeStyle=orthogonalEdgeStyle;" edge="1" parent="1" source="n2ireLhnC03Noz2BO7-L-11" target="n2ireLhnC03Noz2BO7-L-29">
          <mxGeometry relative="1" as="geometry">
            <Array as="points">
              <mxPoint x="-160" y="600" />
              <mxPoint x="-160" y="342" />
            </Array>
          </mxGeometry>
        </mxCell>
        <mxCell id="n2ireLhnC03Noz2BO7-L-11" value="Base Contract" style="swimlane;fontStyle=0;childLayout=stackLayout;horizontal=1;startSize=26;fillColor=#d5e8d4;horizontalStack=0;resizeParent=1;resizeParentMax=0;resizeLast=0;collapsible=1;marginBottom=0;strokeColor=#82b366;" vertex="1" parent="1">
          <mxGeometry x="-210" y="600" width="140" height="130" as="geometry" />
        </mxCell>
        <mxCell id="n2ireLhnC03Noz2BO7-L-12" value="Bridge" style="text;strokeColor=none;fillColor=none;align=left;verticalAlign=top;spacingLeft=4;spacingRight=4;overflow=hidden;rotatable=0;points=[[0,0.5],[1,0.5]];portConstraint=eastwest;" vertex="1" parent="n2ireLhnC03Noz2BO7-L-11">
          <mxGeometry y="26" width="140" height="26" as="geometry" />
        </mxCell>
        <mxCell id="n2ireLhnC03Noz2BO7-L-13" value="Erc20 Contract" style="text;strokeColor=none;fillColor=none;align=left;verticalAlign=top;spacingLeft=4;spacingRight=4;overflow=hidden;rotatable=0;points=[[0,0.5],[1,0.5]];portConstraint=eastwest;" vertex="1" parent="n2ireLhnC03Noz2BO7-L-11">
          <mxGeometry y="52" width="140" height="26" as="geometry" />
        </mxCell>
        <mxCell id="n2ireLhnC03Noz2BO7-L-14" value="Erc721 Contract" style="text;strokeColor=none;fillColor=none;align=left;verticalAlign=top;spacingLeft=4;spacingRight=4;overflow=hidden;rotatable=0;points=[[0,0.5],[1,0.5]];portConstraint=eastwest;" vertex="1" parent="n2ireLhnC03Noz2BO7-L-11">
          <mxGeometry y="78" width="140" height="26" as="geometry" />
        </mxCell>
        <mxCell id="n2ireLhnC03Noz2BO7-L-15" value="Generic Contract" style="text;strokeColor=none;fillColor=none;align=left;verticalAlign=top;spacingLeft=4;spacingRight=4;overflow=hidden;rotatable=0;points=[[0,0.5],[1,0.5]];portConstraint=eastwest;" vertex="1" parent="n2ireLhnC03Noz2BO7-L-11">
          <mxGeometry y="104" width="140" height="26" as="geometry" />
        </mxCell>
        <mxCell id="n2ireLhnC03Noz2BO7-L-16" value="" style="endArrow=classic;html=1;fontSize=5;exitX=0;exitY=0.5;exitDx=0;exitDy=0;entryX=0;entryY=0.5;entryDx=0;entryDy=0;edgeStyle=orthogonalEdgeStyle;fillColor=#d5e8d4;strokeColor=#82b366;strokeWidth=3;" edge="1" parent="n2ireLhnC03Noz2BO7-L-11" source="n2ireLhnC03Noz2BO7-L-12" target="n2ireLhnC03Noz2BO7-L-13">
          <mxGeometry relative="1" as="geometry">
            <mxPoint x="-440" y="-28" as="sourcePoint" />
            <mxPoint x="-280" y="-28" as="targetPoint" />
            <Array as="points">
              <mxPoint x="-100" y="39" />
              <mxPoint x="-100" y="65" />
            </Array>
          </mxGeometry>
        </mxCell>
        <mxCell id="n2ireLhnC03Noz2BO7-L-17" value="3" style="edgeLabel;resizable=0;html=1;align=center;verticalAlign=middle;" connectable="0" vertex="1" parent="n2ireLhnC03Noz2BO7-L-16">
          <mxGeometry relative="1" as="geometry" />
        </mxCell>
        <mxCell id="n2ireLhnC03Noz2BO7-L-18" value="Deposit 请求" style="edgeLabel;resizable=0;html=1;align=left;verticalAlign=bottom;" connectable="0" vertex="1" parent="n2ireLhnC03Noz2BO7-L-16">
          <mxGeometry x="-1" relative="1" as="geometry">
            <mxPoint x="-90" as="offset" />
          </mxGeometry>
        </mxCell>
        <mxCell id="n2ireLhnC03Noz2BO7-L-19" value="Erc20 Contract" style="swimlane;fontStyle=1;align=center;verticalAlign=top;childLayout=stackLayout;horizontal=1;startSize=26;horizontalStack=0;resizeParent=1;resizeParentMax=0;resizeLast=0;collapsible=1;marginBottom=0;" vertex="1" parent="1">
          <mxGeometry x="20" y="542" width="160" height="60" as="geometry" />
        </mxCell>
        <mxCell id="n2ireLhnC03Noz2BO7-L-20" value="Erc20 Handler Contract" style="text;strokeColor=none;fillColor=none;align=left;verticalAlign=top;spacingLeft=4;spacingRight=4;overflow=hidden;rotatable=0;points=[[0,0.5],[1,0.5]];portConstraint=eastwest;" vertex="1" parent="n2ireLhnC03Noz2BO7-L-19">
          <mxGeometry y="26" width="160" height="26" as="geometry" />
        </mxCell>
        <mxCell id="n2ireLhnC03Noz2BO7-L-21" value="" style="line;strokeWidth=1;fillColor=none;align=left;verticalAlign=middle;spacingTop=-1;spacingLeft=3;spacingRight=3;rotatable=0;labelPosition=right;points=[];portConstraint=eastwest;" vertex="1" parent="n2ireLhnC03Noz2BO7-L-19">
          <mxGeometry y="52" width="160" height="8" as="geometry" />
        </mxCell>
        <mxCell id="n2ireLhnC03Noz2BO7-L-22" value="Relayer" style="swimlane;fontStyle=1;align=center;verticalAlign=top;childLayout=stackLayout;horizontal=1;startSize=26;horizontalStack=0;resizeParent=1;resizeParentMax=0;resizeLast=0;collapsible=1;marginBottom=0;" vertex="1" parent="1">
          <mxGeometry x="-10" y="770" width="160" height="86" as="geometry" />
        </mxCell>
        <mxCell id="n2ireLhnC03Noz2BO7-L-23" value="Alice" style="text;strokeColor=none;fillColor=none;align=left;verticalAlign=top;spacingLeft=4;spacingRight=4;overflow=hidden;rotatable=0;points=[[0,0.5],[1,0.5]];portConstraint=eastwest;" vertex="1" parent="n2ireLhnC03Noz2BO7-L-22">
          <mxGeometry y="26" width="160" height="26" as="geometry" />
        </mxCell>
        <mxCell id="n2ireLhnC03Noz2BO7-L-24" value="" style="line;strokeWidth=1;fillColor=none;align=left;verticalAlign=middle;spacingTop=-1;spacingLeft=3;spacingRight=3;rotatable=0;labelPosition=right;points=[];portConstraint=eastwest;" vertex="1" parent="n2ireLhnC03Noz2BO7-L-22">
          <mxGeometry y="52" width="160" height="8" as="geometry" />
        </mxCell>
        <mxCell id="n2ireLhnC03Noz2BO7-L-25" value="Bob" style="text;strokeColor=none;fillColor=none;align=left;verticalAlign=top;spacingLeft=4;spacingRight=4;overflow=hidden;rotatable=0;points=[[0,0.5],[1,0.5]];portConstraint=eastwest;" vertex="1" parent="n2ireLhnC03Noz2BO7-L-22">
          <mxGeometry y="60" width="160" height="26" as="geometry" />
        </mxCell>
        <mxCell id="n2ireLhnC03Noz2BO7-L-26" value="" style="edgeStyle=orthogonalEdgeStyle;rounded=0;orthogonalLoop=1;jettySize=auto;html=1;" edge="1" parent="1" source="n2ireLhnC03Noz2BO7-L-29" target="n2ireLhnC03Noz2BO7-L-45">
          <mxGeometry relative="1" as="geometry" />
        </mxCell>
        <mxCell id="n2ireLhnC03Noz2BO7-L-27" value="IERC20" style="edgeLabel;html=1;align=center;verticalAlign=middle;resizable=0;points=[];" vertex="1" connectable="0" parent="n2ireLhnC03Noz2BO7-L-26">
          <mxGeometry x="-0.1947" y="-1" relative="1" as="geometry">
            <mxPoint as="offset" />
          </mxGeometry>
        </mxCell>
        <mxCell id="n2ireLhnC03Noz2BO7-L-28" style="edgeStyle=orthogonalEdgeStyle;rounded=0;orthogonalLoop=1;jettySize=auto;html=1;exitX=1;exitY=0;exitDx=0;exitDy=0;entryX=0;entryY=0.5;entryDx=0;entryDy=0;" edge="1" parent="1" source="n2ireLhnC03Noz2BO7-L-29" target="n2ireLhnC03Noz2BO7-L-112">
          <mxGeometry relative="1" as="geometry">
            <Array as="points">
              <mxPoint x="-50" y="270" />
            </Array>
          </mxGeometry>
        </mxCell>
        <mxCell id="n2ireLhnC03Noz2BO7-L-29" value="token Address" style="html=1;fillColor=#dae8fc;strokeColor=#6c8ebf;" vertex="1" parent="1">
          <mxGeometry x="-130" y="330" width="80" height="24" as="geometry" />
        </mxCell>
        <mxCell id="n2ireLhnC03Noz2BO7-L-30" value="Listener" style="shape=process;whiteSpace=wrap;html=1;backgroundOutline=1;" vertex="1" parent="1">
          <mxGeometry x="510" y="422" width="120" height="60" as="geometry" />
        </mxCell>
        <mxCell id="n2ireLhnC03Noz2BO7-L-31" value="Writer" style="shape=process;whiteSpace=wrap;html=1;backgroundOutline=1;" vertex="1" parent="1">
          <mxGeometry x="510" y="640" width="120" height="60" as="geometry" />
        </mxCell>
        <mxCell id="n2ireLhnC03Noz2BO7-L-32" style="rounded=0;orthogonalLoop=1;jettySize=auto;html=1;exitX=0;exitY=0;exitDx=0;exitDy=52.5;exitPerimeter=0;entryX=1;entryY=0.5;entryDx=0;entryDy=0;strokeWidth=3;fillColor=#e1d5e7;strokeColor=#9673a6;" edge="1" parent="1" source="n2ireLhnC03Noz2BO7-L-33" target="n2ireLhnC03Noz2BO7-L-31">
          <mxGeometry relative="1" as="geometry" />
        </mxCell>
        <mxCell id="n2ireLhnC03Noz2BO7-L-33" value="Router" style="shape=cylinder3;whiteSpace=wrap;html=1;boundedLbl=1;backgroundOutline=1;size=15;" vertex="1" parent="1">
          <mxGeometry x="1060" y="529.5" width="60" height="80" as="geometry" />
        </mxCell>
        <mxCell id="n2ireLhnC03Noz2BO7-L-34" value="Client" style="shape=actor;whiteSpace=wrap;html=1;fillColor=#f8cecc;strokeColor=#b85450;" vertex="1" parent="1">
          <mxGeometry x="-560" y="507" width="40" height="55" as="geometry" />
        </mxCell>
        <mxCell id="n2ireLhnC03Noz2BO7-L-35" value="" style="endArrow=classic;html=1;fontSize=5;exitX=1;exitY=0.75;exitDx=0;exitDy=0;entryX=0;entryY=0.5;entryDx=0;entryDy=0;fillColor=#d5e8d4;strokeColor=#82b366;strokeWidth=3;" edge="1" parent="1" source="n2ireLhnC03Noz2BO7-L-34" target="n2ireLhnC03Noz2BO7-L-9">
          <mxGeometry relative="1" as="geometry">
            <mxPoint x="-690" y="490" as="sourcePoint" />
            <mxPoint x="-530" y="490" as="targetPoint" />
          </mxGeometry>
        </mxCell>
        <mxCell id="n2ireLhnC03Noz2BO7-L-36" value="1" style="edgeLabel;resizable=0;html=1;align=center;verticalAlign=middle;" connectable="0" vertex="1" parent="n2ireLhnC03Noz2BO7-L-35">
          <mxGeometry relative="1" as="geometry" />
        </mxCell>
        <mxCell id="n2ireLhnC03Noz2BO7-L-37" value="转账到sub" style="edgeLabel;resizable=0;html=1;align=left;verticalAlign=bottom;" connectable="0" vertex="1" parent="n2ireLhnC03Noz2BO7-L-35">
          <mxGeometry x="-1" relative="1" as="geometry" />
        </mxCell>
        <mxCell id="n2ireLhnC03Noz2BO7-L-38" value="" style="endArrow=classic;html=1;fontSize=5;exitX=0;exitY=0.5;exitDx=0;exitDy=0;entryX=0.25;entryY=0;entryDx=0;entryDy=0;edgeStyle=orthogonalEdgeStyle;fillColor=#d5e8d4;strokeColor=#82b366;strokeWidth=3;" edge="1" parent="1" source="n2ireLhnC03Noz2BO7-L-9" target="n2ireLhnC03Noz2BO7-L-11">
          <mxGeometry relative="1" as="geometry">
            <mxPoint x="-660" y="490" as="sourcePoint" />
            <mxPoint x="-560" y="490" as="targetPoint" />
            <Array as="points">
              <mxPoint x="-175" y="550" />
            </Array>
          </mxGeometry>
        </mxCell>
        <mxCell id="n2ireLhnC03Noz2BO7-L-39" value="2" style="edgeLabel;resizable=0;html=1;align=center;verticalAlign=middle;" connectable="0" vertex="1" parent="n2ireLhnC03Noz2BO7-L-38">
          <mxGeometry relative="1" as="geometry" />
        </mxCell>
        <mxCell id="n2ireLhnC03Noz2BO7-L-40" value="" style="endArrow=classic;html=1;entryX=0;entryY=0.25;entryDx=0;entryDy=0;exitX=0.75;exitY=0.25;exitDx=0;exitDy=0;exitPerimeter=0;edgeStyle=orthogonalEdgeStyle;" edge="1" parent="1" source="n2ireLhnC03Noz2BO7-L-34" target="n2ireLhnC03Noz2BO7-L-29">
          <mxGeometry relative="1" as="geometry">
            <mxPoint x="-30" y="570" as="sourcePoint" />
            <mxPoint x="130" y="570" as="targetPoint" />
            <Array as="points">
              <mxPoint x="-530" y="342" />
              <mxPoint x="-130" y="342" />
            </Array>
          </mxGeometry>
        </mxCell>
        <mxCell id="n2ireLhnC03Noz2BO7-L-41" value="crypto" style="edgeLabel;resizable=0;html=1;align=center;verticalAlign=middle;" connectable="0" vertex="1" parent="n2ireLhnC03Noz2BO7-L-40">
          <mxGeometry relative="1" as="geometry" />
        </mxCell>
        <mxCell id="n2ireLhnC03Noz2BO7-L-42" value="address,nonce" style="edgeLabel;resizable=0;html=1;align=left;verticalAlign=bottom;" connectable="0" vertex="1" parent="n2ireLhnC03Noz2BO7-L-40">
          <mxGeometry x="-1" relative="1" as="geometry" />
        </mxCell>
        <mxCell id="n2ireLhnC03Noz2BO7-L-43" value="" style="endArrow=none;dashed=1;html=1;exitX=0;exitY=0.5;exitDx=0;exitDy=0;edgeStyle=orthogonalEdgeStyle;" edge="1" parent="1" source="n2ireLhnC03Noz2BO7-L-20">
          <mxGeometry width="50" height="50" relative="1" as="geometry">
            <mxPoint x="30" y="590" as="sourcePoint" />
            <mxPoint x="-90" y="354" as="targetPoint" />
            <Array as="points">
              <mxPoint x="-90" y="581" />
              <mxPoint x="-90" y="354" />
            </Array>
          </mxGeometry>
        </mxCell>
        <mxCell id="n2ireLhnC03Noz2BO7-L-44" value="setResource" style="edgeLabel;html=1;align=center;verticalAlign=middle;resizable=0;points=[];" vertex="1" connectable="0" parent="n2ireLhnC03Noz2BO7-L-43">
          <mxGeometry x="0.1736" y="4" relative="1" as="geometry">
            <mxPoint as="offset" />
          </mxGeometry>
        </mxCell>
        <mxCell id="n2ireLhnC03Noz2BO7-L-45" value="token" style="ellipse;shape=cloud;whiteSpace=wrap;html=1;strokeColor=#6c8ebf;fillColor=#dae8fc;" vertex="1" parent="1">
          <mxGeometry x="60" y="323.5" width="40" height="37" as="geometry" />
        </mxCell>
        <mxCell id="n2ireLhnC03Noz2BO7-L-46" value="" style="edgeStyle=orthogonalEdgeStyle;rounded=0;orthogonalLoop=1;jettySize=auto;html=1;entryX=1;entryY=0.5;entryDx=0;entryDy=0;" edge="1" parent="1" source="n2ireLhnC03Noz2BO7-L-47" target="n2ireLhnC03Noz2BO7-L-112">
          <mxGeometry relative="1" as="geometry">
            <Array as="points">
              <mxPoint x="150" y="270" />
            </Array>
          </mxGeometry>
        </mxCell>
        <mxCell id="n2ireLhnC03Noz2BO7-L-47" value="Erc20Handler Address" style="html=1;whiteSpace=wrap;container=1;recursiveResize=0;collapsible=0;fillColor=#d80073;strokeColor=#A50040;fontColor=#ffffff;" vertex="1" parent="1">
          <mxGeometry x="150" y="320" width="80" height="34" as="geometry" />
        </mxCell>
        <mxCell id="n2ireLhnC03Noz2BO7-L-48" value="" style="endArrow=classic;html=1;entryX=0.5;entryY=1;entryDx=0;entryDy=0;exitX=1;exitY=0.5;exitDx=0;exitDy=0;edgeStyle=orthogonalEdgeStyle;strokeWidth=3;fillColor=#d5e8d4;strokeColor=#82b366;" edge="1" parent="1" source="n2ireLhnC03Noz2BO7-L-20" target="n2ireLhnC03Noz2BO7-L-47">
          <mxGeometry relative="1" as="geometry">
            <mxPoint x="-110" y="500" as="sourcePoint" />
            <mxPoint x="50" y="500" as="targetPoint" />
          </mxGeometry>
        </mxCell>
        <mxCell id="n2ireLhnC03Noz2BO7-L-49" value="4" style="edgeLabel;resizable=0;html=1;align=center;verticalAlign=middle;" connectable="0" vertex="1" parent="n2ireLhnC03Noz2BO7-L-48">
          <mxGeometry relative="1" as="geometry" />
        </mxCell>
        <mxCell id="n2ireLhnC03Noz2BO7-L-50" value="lock" style="edgeLabel;resizable=0;html=1;align=left;verticalAlign=bottom;" connectable="0" vertex="1" parent="n2ireLhnC03Noz2BO7-L-48">
          <mxGeometry x="-1" relative="1" as="geometry">
            <mxPoint x="10" y="-61" as="offset" />
          </mxGeometry>
        </mxCell>
        <mxCell id="n2ireLhnC03Noz2BO7-L-51" value="唯一标识一次交易" style="shape=callout;whiteSpace=wrap;html=1;perimeter=calloutPerimeter;" vertex="1" parent="1">
          <mxGeometry x="-170" y="280" width="100" height="50" as="geometry" />
        </mxCell>
        <mxCell id="n2ireLhnC03Noz2BO7-L-52" value="" style="endArrow=none;html=1;entryX=0.8;entryY=0.8;entryDx=0;entryDy=0;entryPerimeter=0;edgeStyle=orthogonalEdgeStyle;" edge="1" parent="1" target="n2ireLhnC03Noz2BO7-L-45">
          <mxGeometry width="50" height="50" relative="1" as="geometry">
            <mxPoint x="190" y="440" as="sourcePoint" />
            <mxPoint x="140" y="380" as="targetPoint" />
          </mxGeometry>
        </mxCell>
        <mxCell id="n2ireLhnC03Noz2BO7-L-53" value="transferFrom" style="edgeLabel;html=1;align=center;verticalAlign=middle;resizable=0;points=[];" vertex="1" connectable="0" parent="n2ireLhnC03Noz2BO7-L-52">
          <mxGeometry x="0.6658" y="-1" relative="1" as="geometry">
            <mxPoint as="offset" />
          </mxGeometry>
        </mxCell>
        <mxCell id="n2ireLhnC03Noz2BO7-L-54" value="" style="endArrow=none;html=1;entryX=0;entryY=0.5;entryDx=0;entryDy=0;exitX=1;exitY=0.5;exitDx=0;exitDy=0;edgeStyle=orthogonalEdgeStyle;fillColor=#d5e8d4;strokeColor=#82b366;strokeWidth=3;" edge="1" parent="1" source="n2ireLhnC03Noz2BO7-L-13" target="n2ireLhnC03Noz2BO7-L-20">
          <mxGeometry width="50" height="50" relative="1" as="geometry">
            <mxPoint x="200" y="600" as="sourcePoint" />
            <mxPoint x="250" y="550" as="targetPoint" />
          </mxGeometry>
        </mxCell>
        <mxCell id="n2ireLhnC03Noz2BO7-L-55" value="" style="endArrow=classic;html=1;exitX=1;exitY=0;exitDx=0;exitDy=52.5;exitPerimeter=0;entryX=0;entryY=0.5;entryDx=0;entryDy=0;fillColor=#d5e8d4;strokeColor=#82b366;strokeWidth=3;" edge="1" parent="1" source="n2ireLhnC03Noz2BO7-L-33" target="n2ireLhnC03Noz2BO7-L-7">
          <mxGeometry width="50" height="50" relative="1" as="geometry">
            <mxPoint x="910" y="590" as="sourcePoint" />
            <mxPoint x="1450" y="501" as="targetPoint" />
          </mxGeometry>
        </mxCell>
        <mxCell id="n2ireLhnC03Noz2BO7-L-56" value="resolveMessage" style="edgeLabel;html=1;align=center;verticalAlign=middle;resizable=0;points=[];" vertex="1" connectable="0" parent="n2ireLhnC03Noz2BO7-L-55">
          <mxGeometry x="0.0473" y="4" relative="1" as="geometry">
            <mxPoint as="offset" />
          </mxGeometry>
        </mxCell>
        <mxCell id="n2ireLhnC03Noz2BO7-L-57" value="Proposal" style="shape=folder;tabWidth=80;tabHeight=20;tabPosition=left;html=1;whiteSpace=wrap;align=center;" vertex="1" parent="1">
          <mxGeometry x="240" y="710" width="160" height="100" as="geometry" />
        </mxCell>
        <mxCell id="n2ireLhnC03Noz2BO7-L-58" value="" style="endArrow=classic;html=1;exitX=1;exitY=0.5;exitDx=0;exitDy=0;entryX=0;entryY=0;entryDx=0;entryDy=100;entryPerimeter=0;fillColor=#e1d5e7;strokeColor=#9673a6;strokeWidth=3;" edge="1" parent="1" source="n2ireLhnC03Noz2BO7-L-23" target="n2ireLhnC03Noz2BO7-L-57">
          <mxGeometry relative="1" as="geometry">
            <mxPoint x="500" y="390.29" as="sourcePoint" />
            <mxPoint x="230" y="856" as="targetPoint" />
          </mxGeometry>
        </mxCell>
        <mxCell id="n2ireLhnC03Noz2BO7-L-59" value="vote" style="edgeLabel;resizable=0;html=1;align=center;verticalAlign=middle;" connectable="0" vertex="1" parent="n2ireLhnC03Noz2BO7-L-58">
          <mxGeometry relative="1" as="geometry">
            <mxPoint x="-25" y="-9" as="offset" />
          </mxGeometry>
        </mxCell>
        <mxCell id="n2ireLhnC03Noz2BO7-L-60" value="7`" style="edgeLabel;html=1;align=center;verticalAlign=middle;resizable=0;points=[];" vertex="1" connectable="0" parent="n2ireLhnC03Noz2BO7-L-58">
          <mxGeometry x="-0.0311" y="-2" relative="1" as="geometry">
            <mxPoint as="offset" />
          </mxGeometry>
        </mxCell>
        <mxCell id="n2ireLhnC03Noz2BO7-L-61" value="" style="endArrow=classic;html=1;exitX=0.471;exitY=0.962;exitDx=0;exitDy=0;entryX=0;entryY=0;entryDx=0;entryDy=40;entryPerimeter=0;edgeStyle=orthogonalEdgeStyle;exitPerimeter=0;fillColor=#e1d5e7;strokeColor=#9673a6;strokeWidth=3;" edge="1" parent="1" source="n2ireLhnC03Noz2BO7-L-15" target="n2ireLhnC03Noz2BO7-L-57">
          <mxGeometry relative="1" as="geometry">
            <mxPoint x="470" y="640" as="sourcePoint" />
            <mxPoint x="570" y="640" as="targetPoint" />
          </mxGeometry>
        </mxCell>
        <mxCell id="n2ireLhnC03Noz2BO7-L-62" value="Execute Proposal (mint/release)" style="edgeLabel;resizable=0;html=1;align=center;verticalAlign=middle;" connectable="0" vertex="1" parent="n2ireLhnC03Noz2BO7-L-61">
          <mxGeometry relative="1" as="geometry">
            <mxPoint x="-87.91" y="-10" as="offset" />
          </mxGeometry>
        </mxCell>
        <mxCell id="n2ireLhnC03Noz2BO7-L-63" value="8`" style="edgeLabel;html=1;align=center;verticalAlign=middle;resizable=0;points=[];" vertex="1" connectable="0" parent="n2ireLhnC03Noz2BO7-L-61">
          <mxGeometry x="0.304" y="3" relative="1" as="geometry">
            <mxPoint as="offset" />
          </mxGeometry>
        </mxCell>
        <mxCell id="n2ireLhnC03Noz2BO7-L-64" value="" style="endArrow=classic;html=1;exitX=0.5;exitY=0;exitDx=0;exitDy=0;entryX=0;entryY=0;entryDx=120;entryDy=20;entryPerimeter=0;edgeStyle=orthogonalEdgeStyle;" edge="1" parent="1" source="n2ireLhnC03Noz2BO7-L-31" target="n2ireLhnC03Noz2BO7-L-57">
          <mxGeometry relative="1" as="geometry">
            <mxPoint x="470" y="640" as="sourcePoint" />
            <mxPoint x="570" y="640" as="targetPoint" />
          </mxGeometry>
        </mxCell>
        <mxCell id="n2ireLhnC03Noz2BO7-L-65" value="7" style="edgeLabel;html=1;align=center;verticalAlign=middle;resizable=0;points=[];" vertex="1" connectable="0" parent="n2ireLhnC03Noz2BO7-L-64">
          <mxGeometry x="0.2658" y="-2" relative="1" as="geometry">
            <mxPoint as="offset" />
          </mxGeometry>
        </mxCell>
        <mxCell id="n2ireLhnC03Noz2BO7-L-66" value="" style="endArrow=classic;html=1;exitX=1;exitY=0.5;exitDx=0;exitDy=0;entryX=0.5;entryY=0;entryDx=0;entryDy=0;edgeStyle=orthogonalEdgeStyle;fillColor=#d5e8d4;strokeColor=#82b366;strokeWidth=3;" edge="1" parent="1" source="n2ireLhnC03Noz2BO7-L-47" target="n2ireLhnC03Noz2BO7-L-30">
          <mxGeometry relative="1" as="geometry">
            <mxPoint x="310" y="640" as="sourcePoint" />
            <mxPoint x="470" y="640" as="targetPoint" />
          </mxGeometry>
        </mxCell>
        <mxCell id="n2ireLhnC03Noz2BO7-L-67" value="5" style="edgeLabel;resizable=0;html=1;align=center;verticalAlign=middle;" connectable="0" vertex="1" parent="n2ireLhnC03Noz2BO7-L-66">
          <mxGeometry relative="1" as="geometry" />
        </mxCell>
        <mxCell id="n2ireLhnC03Noz2BO7-L-68" value="Deposit Event" style="edgeLabel;resizable=0;html=1;align=left;verticalAlign=bottom;" connectable="0" vertex="1" parent="n2ireLhnC03Noz2BO7-L-66">
          <mxGeometry x="-1" relative="1" as="geometry" />
        </mxCell>
        <mxCell id="n2ireLhnC03Noz2BO7-L-69" value="Create Proposal" style="edgeLabel;resizable=0;html=1;align=center;verticalAlign=middle;" connectable="0" vertex="1" parent="1">
          <mxGeometry x="510" y="620" as="geometry" />
        </mxCell>
        <mxCell id="n2ireLhnC03Noz2BO7-L-70" value="Contract" style="rounded=1;whiteSpace=wrap;html=1;" vertex="1" parent="1">
          <mxGeometry x="2150" y="565" width="120" height="60" as="geometry" />
        </mxCell>
        <mxCell id="n2ireLhnC03Noz2BO7-L-71" value="" style="endArrow=classic;html=1;exitX=0.5;exitY=0;exitDx=0;exitDy=0;entryX=0;entryY=0;entryDx=120;entryDy=20;entryPerimeter=0;edgeStyle=orthogonalEdgeStyle;" edge="1" parent="1" source="n2ireLhnC03Noz2BO7-L-31" target="n2ireLhnC03Noz2BO7-L-57">
          <mxGeometry relative="1" as="geometry">
            <mxPoint x="570" y="640" as="sourcePoint" />
            <mxPoint x="360" y="730" as="targetPoint" />
            <Array as="points">
              <mxPoint x="570" y="630" />
              <mxPoint x="360" y="630" />
            </Array>
          </mxGeometry>
        </mxCell>
        <mxCell id="n2ireLhnC03Noz2BO7-L-72" value="7" style="edgeLabel;html=1;align=center;verticalAlign=middle;resizable=0;points=[];" vertex="1" connectable="0" parent="n2ireLhnC03Noz2BO7-L-71">
          <mxGeometry x="0.2658" y="-2" relative="1" as="geometry">
            <mxPoint as="offset" />
          </mxGeometry>
        </mxCell>
        <mxCell id="n2ireLhnC03Noz2BO7-L-73" value="Proposal" style="shape=folder;tabWidth=80;tabHeight=20;tabPosition=left;html=1;whiteSpace=wrap;align=center;" vertex="1" parent="1">
          <mxGeometry x="1910" y="609.5" width="160" height="100" as="geometry" />
        </mxCell>
        <mxCell id="n2ireLhnC03Noz2BO7-L-74" value="" style="endArrow=classic;html=1;exitX=0.5;exitY=0;exitDx=0;exitDy=0;entryX=0;entryY=0;entryDx=120;entryDy=20;entryPerimeter=0;edgeStyle=orthogonalEdgeStyle;fillColor=#e1d5e7;strokeColor=#9673a6;strokeWidth=3;" edge="1" parent="1" source="n2ireLhnC03Noz2BO7-L-31" target="n2ireLhnC03Noz2BO7-L-57">
          <mxGeometry relative="1" as="geometry">
            <mxPoint x="570" y="640" as="sourcePoint" />
            <mxPoint x="360" y="730" as="targetPoint" />
            <Array as="points">
              <mxPoint x="570" y="630" />
              <mxPoint x="360" y="630" />
            </Array>
          </mxGeometry>
        </mxCell>
        <mxCell id="n2ireLhnC03Noz2BO7-L-75" value="6`" style="edgeLabel;html=1;align=center;verticalAlign=middle;resizable=0;points=[];" vertex="1" connectable="0" parent="n2ireLhnC03Noz2BO7-L-74">
          <mxGeometry x="0.2658" y="-2" relative="1" as="geometry">
            <mxPoint as="offset" />
          </mxGeometry>
        </mxCell>
        <mxCell id="n2ireLhnC03Noz2BO7-L-76" value="" style="endArrow=classic;html=1;exitX=1;exitY=0.5;exitDx=0;exitDy=0;entryX=0;entryY=0;entryDx=0;entryDy=60;entryPerimeter=0;fillColor=#d5e8d4;strokeColor=#82b366;strokeWidth=3;" edge="1" parent="1" source="n2ireLhnC03Noz2BO7-L-7" target="n2ireLhnC03Noz2BO7-L-73">
          <mxGeometry relative="1" as="geometry">
            <mxPoint x="1790" y="410" as="sourcePoint" />
            <mxPoint x="1950" y="410" as="targetPoint" />
          </mxGeometry>
        </mxCell>
        <mxCell id="n2ireLhnC03Noz2BO7-L-77" value="7" style="edgeLabel;resizable=0;html=1;align=center;verticalAlign=middle;" connectable="0" vertex="1" parent="n2ireLhnC03Noz2BO7-L-76">
          <mxGeometry relative="1" as="geometry" />
        </mxCell>
        <mxCell id="n2ireLhnC03Noz2BO7-L-78" value="create proposal and acknowledged" style="edgeLabel;resizable=0;html=1;align=left;verticalAlign=bottom;" connectable="0" vertex="1" parent="n2ireLhnC03Noz2BO7-L-76">
          <mxGeometry x="-1" relative="1" as="geometry" />
        </mxCell>
        <mxCell id="n2ireLhnC03Noz2BO7-L-79" value="" style="endArrow=classic;html=1;exitX=0.481;exitY=1.038;exitDx=0;exitDy=0;exitPerimeter=0;entryX=0;entryY=0;entryDx=80;entryDy=20;entryPerimeter=0;fillColor=#d5e8d4;strokeColor=#82b366;strokeWidth=3;" edge="1" parent="1" source="n2ireLhnC03Noz2BO7-L-5" target="n2ireLhnC03Noz2BO7-L-73">
          <mxGeometry relative="1" as="geometry">
            <mxPoint x="1820" y="410" as="sourcePoint" />
            <mxPoint x="1980" y="410" as="targetPoint" />
          </mxGeometry>
        </mxCell>
        <mxCell id="n2ireLhnC03Noz2BO7-L-80" value="9" style="edgeLabel;resizable=0;html=1;align=center;verticalAlign=middle;" connectable="0" vertex="1" parent="n2ireLhnC03Noz2BO7-L-79">
          <mxGeometry relative="1" as="geometry" />
        </mxCell>
        <mxCell id="n2ireLhnC03Noz2BO7-L-81" value="Vote" style="edgeLabel;resizable=0;html=1;align=left;verticalAlign=bottom;" connectable="0" vertex="1" parent="n2ireLhnC03Noz2BO7-L-79">
          <mxGeometry x="-1" relative="1" as="geometry">
            <mxPoint y="34.01" as="offset" />
          </mxGeometry>
        </mxCell>
        <mxCell id="n2ireLhnC03Noz2BO7-L-82" value="" style="endArrow=classic;html=1;exitX=0.5;exitY=1;exitDx=0;exitDy=0;entryX=0.5;entryY=1;entryDx=0;entryDy=0;entryPerimeter=0;edgeStyle=orthogonalEdgeStyle;fillColor=#d5e8d4;strokeColor=#82b366;strokeWidth=3;" edge="1" parent="1" source="n2ireLhnC03Noz2BO7-L-7" target="n2ireLhnC03Noz2BO7-L-73">
          <mxGeometry relative="1" as="geometry">
            <mxPoint x="1860" y="410" as="sourcePoint" />
            <mxPoint x="2020" y="410" as="targetPoint" />
            <Array as="points">
              <mxPoint x="1610" y="780" />
              <mxPoint x="1990" y="780" />
            </Array>
          </mxGeometry>
        </mxCell>
        <mxCell id="n2ireLhnC03Noz2BO7-L-83" value="SubmitTx" style="edgeLabel;resizable=0;html=1;align=left;verticalAlign=bottom;" connectable="0" vertex="1" parent="n2ireLhnC03Noz2BO7-L-82">
          <mxGeometry x="-1" relative="1" as="geometry">
            <mxPoint y="30" as="offset" />
          </mxGeometry>
        </mxCell>
        <mxCell id="n2ireLhnC03Noz2BO7-L-84" value="8" style="edgeLabel;html=1;align=center;verticalAlign=middle;resizable=0;points=[];" vertex="1" connectable="0" parent="n2ireLhnC03Noz2BO7-L-82">
          <mxGeometry x="0.0669" y="-2" relative="1" as="geometry">
            <mxPoint as="offset" />
          </mxGeometry>
        </mxCell>
        <mxCell id="n2ireLhnC03Noz2BO7-L-85" value="" style="endArrow=classic;html=1;exitX=0.5;exitY=1;exitDx=0;exitDy=0;entryX=0.5;entryY=1;entryDx=0;entryDy=0;entryPerimeter=0;edgeStyle=orthogonalEdgeStyle;strokeWidth=3;fillColor=#d5e8d4;strokeColor=#82b366;" edge="1" parent="1" source="n2ireLhnC03Noz2BO7-L-70" target="n2ireLhnC03Noz2BO7-L-97">
          <mxGeometry relative="1" as="geometry">
            <mxPoint x="1970" y="470" as="sourcePoint" />
            <mxPoint x="2130" y="470" as="targetPoint" />
          </mxGeometry>
        </mxCell>
        <mxCell id="n2ireLhnC03Noz2BO7-L-86" value="10" style="edgeLabel;resizable=0;html=1;align=center;verticalAlign=middle;" connectable="0" vertex="1" parent="n2ireLhnC03Noz2BO7-L-85">
          <mxGeometry relative="1" as="geometry" />
        </mxCell>
        <mxCell id="n2ireLhnC03Noz2BO7-L-87" value="executeProposal" style="edgeLabel;resizable=0;html=1;align=left;verticalAlign=bottom;" connectable="0" vertex="1" parent="n2ireLhnC03Noz2BO7-L-85">
          <mxGeometry x="-1" relative="1" as="geometry">
            <mxPoint x="60" y="-65" as="offset" />
          </mxGeometry>
        </mxCell>
        <mxCell id="n2ireLhnC03Noz2BO7-L-88" value="" style="endArrow=classic;html=1;exitX=0;exitY=0.75;exitDx=0;exitDy=0;entryX=1;entryY=0.5;entryDx=0;entryDy=0;fillColor=#e1d5e7;strokeColor=#9673a6;strokeWidth=3;" edge="1" parent="1" source="n2ireLhnC03Noz2BO7-L-8" target="n2ireLhnC03Noz2BO7-L-1">
          <mxGeometry relative="1" as="geometry">
            <mxPoint x="2660" y="630" as="sourcePoint" />
            <mxPoint x="2820" y="630" as="targetPoint" />
          </mxGeometry>
        </mxCell>
        <mxCell id="n2ireLhnC03Noz2BO7-L-89" value="1`" style="edgeLabel;resizable=0;html=1;align=center;verticalAlign=middle;fillColor=#00FF00;" connectable="0" vertex="1" parent="n2ireLhnC03Noz2BO7-L-88">
          <mxGeometry relative="1" as="geometry" />
        </mxCell>
        <mxCell id="n2ireLhnC03Noz2BO7-L-90" value="转帐到Eth" style="edgeLabel;resizable=0;html=1;align=left;verticalAlign=bottom;" connectable="0" vertex="1" parent="n2ireLhnC03Noz2BO7-L-88">
          <mxGeometry x="-1" relative="1" as="geometry">
            <mxPoint x="-100" y="1.75" as="offset" />
          </mxGeometry>
        </mxCell>
        <mxCell id="n2ireLhnC03Noz2BO7-L-91" value="" style="endArrow=classic;html=1;exitX=1;exitY=0.5;exitDx=0;exitDy=0;entryX=1;entryY=0.5;entryDx=0;entryDy=0;fillColor=#e1d5e7;strokeColor=#9673a6;strokeWidth=3;" edge="1" parent="1" source="n2ireLhnC03Noz2BO7-L-1" target="n2ireLhnC03Noz2BO7-L-70">
          <mxGeometry relative="1" as="geometry">
            <mxPoint x="2160" y="630" as="sourcePoint" />
            <mxPoint x="2320" y="630" as="targetPoint" />
          </mxGeometry>
        </mxCell>
        <mxCell id="n2ireLhnC03Noz2BO7-L-92" value="2`" style="edgeLabel;resizable=0;html=1;align=center;verticalAlign=middle;" connectable="0" vertex="1" parent="n2ireLhnC03Noz2BO7-L-91">
          <mxGeometry relative="1" as="geometry" />
        </mxCell>
        <mxCell id="n2ireLhnC03Noz2BO7-L-93" value="SubmitTX" style="edgeLabel;resizable=0;html=1;align=left;verticalAlign=bottom;" connectable="0" vertex="1" parent="n2ireLhnC03Noz2BO7-L-91">
          <mxGeometry x="-1" relative="1" as="geometry">
            <mxPoint x="-62" as="offset" />
          </mxGeometry>
        </mxCell>
        <mxCell id="n2ireLhnC03Noz2BO7-L-94" style="edgeStyle=orthogonalEdgeStyle;rounded=0;orthogonalLoop=1;jettySize=auto;html=1;exitX=1;exitY=0.5;exitDx=0;exitDy=0;exitPerimeter=0;entryX=0.5;entryY=0;entryDx=0;entryDy=0;fillColor=#d5e8d4;strokeColor=#82b366;strokeWidth=3;" edge="1" parent="1" source="n2ireLhnC03Noz2BO7-L-97" target="n2ireLhnC03Noz2BO7-L-8">
          <mxGeometry relative="1" as="geometry" />
        </mxCell>
        <mxCell id="n2ireLhnC03Noz2BO7-L-95" value="&lt;span style=&quot;text-align: left&quot;&gt;transfer&lt;/span&gt;" style="edgeLabel;html=1;align=center;verticalAlign=middle;resizable=0;points=[];" vertex="1" connectable="0" parent="n2ireLhnC03Noz2BO7-L-94">
          <mxGeometry x="-0.0756" y="1" relative="1" as="geometry">
            <mxPoint x="-219" y="-9" as="offset" />
          </mxGeometry>
        </mxCell>
        <mxCell id="n2ireLhnC03Noz2BO7-L-96" value="11" style="edgeLabel;html=1;align=center;verticalAlign=middle;resizable=0;points=[];" vertex="1" connectable="0" parent="n2ireLhnC03Noz2BO7-L-94">
          <mxGeometry x="-0.1306" y="2" relative="1" as="geometry">
            <mxPoint as="offset" />
          </mxGeometry>
        </mxCell>
        <mxCell id="n2ireLhnC03Noz2BO7-L-97" value="bridge address" style="shape=cylinder3;whiteSpace=wrap;html=1;boundedLbl=1;backgroundOutline=1;size=15;fillColor=#00FF00;" vertex="1" parent="1">
          <mxGeometry x="2280" y="400" width="60" height="80" as="geometry" />
        </mxCell>
        <mxCell id="n2ireLhnC03Noz2BO7-L-98" value="" style="endArrow=classic;html=1;exitX=0.5;exitY=0;exitDx=0;exitDy=0;entryX=0;entryY=0.5;entryDx=0;entryDy=0;entryPerimeter=0;edgeStyle=orthogonalEdgeStyle;fillColor=#e1d5e7;strokeColor=#9673a6;strokeWidth=3;" edge="1" parent="1" source="n2ireLhnC03Noz2BO7-L-70" target="n2ireLhnC03Noz2BO7-L-97">
          <mxGeometry relative="1" as="geometry">
            <mxPoint x="2070" y="630" as="sourcePoint" />
            <mxPoint x="2230" y="630" as="targetPoint" />
          </mxGeometry>
        </mxCell>
        <mxCell id="n2ireLhnC03Noz2BO7-L-99" value="3`" style="edgeLabel;resizable=0;html=1;align=center;verticalAlign=middle;" connectable="0" vertex="1" parent="n2ireLhnC03Noz2BO7-L-98">
          <mxGeometry relative="1" as="geometry" />
        </mxCell>
        <mxCell id="n2ireLhnC03Noz2BO7-L-100" value="transfer_nativer" style="edgeLabel;resizable=0;html=1;align=left;verticalAlign=bottom;" connectable="0" vertex="1" parent="n2ireLhnC03Noz2BO7-L-98">
          <mxGeometry x="-1" relative="1" as="geometry">
            <mxPoint x="-30" y="-45" as="offset" />
          </mxGeometry>
        </mxCell>
        <mxCell id="n2ireLhnC03Noz2BO7-L-101" value="" style="endArrow=classic;html=1;exitX=0.5;exitY=0;exitDx=0;exitDy=0;exitPerimeter=0;entryX=1;entryY=0.5;entryDx=0;entryDy=0;edgeStyle=orthogonalEdgeStyle;fillColor=#e1d5e7;strokeColor=#9673a6;strokeWidth=3;" edge="1" parent="1" source="n2ireLhnC03Noz2BO7-L-97" target="n2ireLhnC03Noz2BO7-L-6">
          <mxGeometry relative="1" as="geometry">
            <mxPoint x="2070" y="620" as="sourcePoint" />
            <mxPoint x="2230" y="620" as="targetPoint" />
            <Array as="points">
              <mxPoint x="2310" y="320" />
              <mxPoint x="1710" y="320" />
              <mxPoint x="1710" y="452" />
            </Array>
          </mxGeometry>
        </mxCell>
        <mxCell id="n2ireLhnC03Noz2BO7-L-102" value="4`" style="edgeLabel;resizable=0;html=1;align=center;verticalAlign=middle;" connectable="0" vertex="1" parent="n2ireLhnC03Noz2BO7-L-101">
          <mxGeometry relative="1" as="geometry" />
        </mxCell>
        <mxCell id="n2ireLhnC03Noz2BO7-L-103" value="fungibleTransfer" style="edgeLabel;resizable=0;html=1;align=left;verticalAlign=bottom;" connectable="0" vertex="1" parent="n2ireLhnC03Noz2BO7-L-101">
          <mxGeometry x="-1" relative="1" as="geometry">
            <mxPoint x="-120" y="-80" as="offset" />
          </mxGeometry>
        </mxCell>
        <mxCell id="n2ireLhnC03Noz2BO7-L-104" value="" style="endArrow=classic;html=1;exitX=0;exitY=0.5;exitDx=0;exitDy=0;entryX=1;entryY=0.5;entryDx=0;entryDy=0;entryPerimeter=0;fillColor=#e1d5e7;strokeColor=#9673a6;strokeWidth=2;" edge="1" parent="1" source="n2ireLhnC03Noz2BO7-L-6" target="n2ireLhnC03Noz2BO7-L-33">
          <mxGeometry relative="1" as="geometry">
            <mxPoint x="1660" y="620" as="sourcePoint" />
            <mxPoint x="1820" y="620" as="targetPoint" />
          </mxGeometry>
        </mxCell>
        <mxCell id="n2ireLhnC03Noz2BO7-L-105" value="5`" style="edgeLabel;resizable=0;html=1;align=center;verticalAlign=middle;" connectable="0" vertex="1" parent="n2ireLhnC03Noz2BO7-L-104">
          <mxGeometry relative="1" as="geometry" />
        </mxCell>
        <mxCell id="n2ireLhnC03Noz2BO7-L-106" value="fungible transfer msg" style="edgeLabel;resizable=0;html=1;align=left;verticalAlign=bottom;rotation=-15;" connectable="0" vertex="1" parent="n2ireLhnC03Noz2BO7-L-104">
          <mxGeometry x="-1" relative="1" as="geometry">
            <mxPoint x="-150" y="38" as="offset" />
          </mxGeometry>
        </mxCell>
        <mxCell id="n2ireLhnC03Noz2BO7-L-107" value="" style="endArrow=classic;html=1;exitX=1;exitY=0.5;exitDx=0;exitDy=0;entryX=0;entryY=0.5;entryDx=0;entryDy=0;entryPerimeter=0;fillColor=#d5e8d4;strokeColor=#82b366;strokeWidth=3;" edge="1" parent="1" source="n2ireLhnC03Noz2BO7-L-30" target="n2ireLhnC03Noz2BO7-L-33">
          <mxGeometry relative="1" as="geometry">
            <mxPoint x="720" y="620" as="sourcePoint" />
            <mxPoint x="880" y="620" as="targetPoint" />
          </mxGeometry>
        </mxCell>
        <mxCell id="n2ireLhnC03Noz2BO7-L-108" value="6" style="edgeLabel;resizable=0;html=1;align=center;verticalAlign=middle;" connectable="0" vertex="1" parent="n2ireLhnC03Noz2BO7-L-107">
          <mxGeometry relative="1" as="geometry" />
        </mxCell>
        <mxCell id="n2ireLhnC03Noz2BO7-L-109" value="fungible tranfer msg" style="edgeLabel;resizable=0;html=1;align=left;verticalAlign=bottom;" connectable="0" vertex="1" parent="n2ireLhnC03Noz2BO7-L-107">
          <mxGeometry x="-1" relative="1" as="geometry" />
        </mxCell>
        <mxCell id="n2ireLhnC03Noz2BO7-L-110" value="" style="endArrow=none;dashed=1;html=1;dashPattern=1 3;strokeWidth=3;entryX=0;entryY=0.5;entryDx=0;entryDy=0;fillColor=#d5e8d4;strokeColor=#82b366;" edge="1" parent="1" target="n2ireLhnC03Noz2BO7-L-70">
          <mxGeometry width="50" height="50" relative="1" as="geometry">
            <mxPoint x="1990" y="585" as="sourcePoint" />
            <mxPoint x="2120" y="580" as="targetPoint" />
          </mxGeometry>
        </mxCell>
        <mxCell id="n2ireLhnC03Noz2BO7-L-111" value="proposal succeed" style="edgeLabel;html=1;align=center;verticalAlign=middle;resizable=0;points=[];" vertex="1" connectable="0" parent="n2ireLhnC03Noz2BO7-L-110">
          <mxGeometry x="-0.3875" y="3" relative="1" as="geometry">
            <mxPoint x="26" y="-1" as="offset" />
          </mxGeometry>
        </mxCell>
        <mxCell id="n2ireLhnC03Noz2BO7-L-112" value="DepositRecord" style="whiteSpace=wrap;html=1;fontColor=#ffffff;strokeColor=#A50040;fillColor=#d80073;" vertex="1" parent="1">
          <mxGeometry y="240" width="120" height="60" as="geometry" />
        </mxCell>
        <mxCell id="n2ireLhnC03Noz2BO7-L-113" value="" style="endArrow=none;dashed=1;html=1;dashPattern=1 3;strokeWidth=2;entryX=0;entryY=0.25;entryDx=0;entryDy=0;exitX=0;exitY=0;exitDx=0;exitDy=0;edgeStyle=orthogonalEdgeStyle;" edge="1" parent="1" source="n2ireLhnC03Noz2BO7-L-11" target="n2ireLhnC03Noz2BO7-L-112">
          <mxGeometry width="50" height="50" relative="1" as="geometry">
            <mxPoint x="-60" y="490" as="sourcePoint" />
            <mxPoint x="-10" y="440" as="targetPoint" />
          </mxGeometry>
        </mxCell>
      </root>
    </mxGraphModel>
  </diagram>
</mxfile>
